<svg xmlns="http://www.w3.org/2000/svg" viewBox="0 0 183.87 52.74"><defs><style>.a{fill:#353234;}.b{fill:#1870ad;}</style></defs><title>Fichier 5</title><path class="a" d="M90.8,13.53H87.28v11h-2v-11H81.75v-1.8h9Z"/><path class="a" d="M93.76,24a6.45,6.45,0,0,1-2-1.38,6.13,6.13,0,0,1-1.38-2,6.39,6.39,0,0,1-.5-2.48,6.49,6.49,0,0,1,.5-2.5,6.88,6.88,0,0,1,1.38-2,6.4,6.4,0,0,1,4.52-1.91,6.49,6.49,0,0,1,2.5.5,6.46,6.46,0,0,1,3.36,3.36,6.49,6.49,0,0,1,.5,2.5,6.41,6.41,0,0,1-1.86,4.51,6.88,6.88,0,0,1-2,1.38,6.49,6.49,0,0,1-2.5.5A6.39,6.39,0,0,1,93.8,24m-.62-9a4.37,4.37,0,1,0,3.1-1.3,4.36,4.36,0,0,0-3.1,1.3"/><path class="b" d="M51.85,1.51V22.14L31.54,0V8a16.67,16.67,0,0,1,0,19.93V34.4H36.7V15.05L57.33,37.46V1.51Z"/><path class="b" d="M78.89,29.73v4.7H59.19V1.55h19.7V6.23H64.38v8.71H76.31v4.7H64.23V29.74Z"/><path class="b" d="M16.66,1.47A16.52,16.52,0,1,0,33,18.13V18A16.45,16.45,0,0,0,16.66,1.47m0,27.73A11.21,11.21,0,1,1,27.89,18,11.21,11.21,0,0,1,16.66,29.2h0"/><path class="b" d="M156.83,1.53V22.15L136.51,0V8a16.61,16.61,0,0,1,0,19.93v6.44h5.17V15.07l20.6,22.4V1.53Z"/><path class="b" d="M183.87,29.75v4.7h-19.7V1.57h19.7V6.25l-14.51,0V15h11.94v4.69H169.21V29.76Z"/><path class="b" d="M121.64,1.49A16.52,16.52,0,1,0,138,18.15V18A16.44,16.44,0,0,0,121.65,1.49h0m0,27.72A11.21,11.21,0,1,1,132.86,18a11.21,11.21,0,0,1-11.22,11.21h0"/><path class="a" d="M.52,52.5V39.58H5.34a4,4,0,0,1,2.82,1,3.58,3.58,0,0,1,1.11,2.76,3.82,3.82,0,0,1-.49,2,3.33,3.33,0,0,1-1.3,1.28,4.06,4.06,0,0,1-1.79.46L9.42,52.5H8.09L4.47,47.15H1.62V52.5Zm1.1-6.35H5.24a2.84,2.84,0,0,0,2.08-.78,2.69,2.69,0,0,0,.79-2,2.65,2.65,0,0,0-.79-2,2.83,2.83,0,0,0-2.08-.77H1.62Z"/><path class="a" d="M12,52.5V39.58h8.19v1H13.12v4.79h7v1h-7V51.5h7.09v1Z"/><path class="a" d="M22,40.59v-1h9.58v1H27.34V52.5H26.23V40.59Z"/><path class="a" d="M32.55,52.5l5.28-12.92H39.2L44.49,52.5H43.21l-1.27-3.18H35.1L33.82,52.5Zm2.92-4.18h6.1l-3-7.56Z"/><path class="a" d="M46.39,52.5V39.58H47.5V52.5Z"/><path class="a" d="M50.43,52.5V39.58h1.11V51.5h6.28v1Z"/><path class="a" d="M65.09,52.5V39.58h8.19v1H66.19v4.79h7v1h-7V51.5h7.09v1Z"/><path class="a" d="M75,48.28v-.9h4.65v.9Z"/><path class="a" d="M81.85,48.77a7,7,0,0,1-.52-2.72,6.92,6.92,0,0,1,.52-2.71,6.2,6.2,0,0,1,1.39-2.13,6.28,6.28,0,0,1,2.08-1.35,6.63,6.63,0,0,1,2.56-.49,5.74,5.74,0,0,1,4.71,2.28l-.94.6A4.51,4.51,0,0,0,90,40.88a4.69,4.69,0,0,0-2.15-.51,5.47,5.47,0,0,0-2.11.41,5.13,5.13,0,0,0-2.86,3,6.49,6.49,0,0,0-.41,2.31A6.09,6.09,0,0,0,83.21,49a5.21,5.21,0,0,0,4.67,2.75A4.7,4.7,0,0,0,90,51.22a4.42,4.42,0,0,0,1.62-1.37l1,.59a5.89,5.89,0,0,1-4.73,2.3,6.82,6.82,0,0,1-2.56-.49,6.31,6.31,0,0,1-2.08-1.36A6.15,6.15,0,0,1,81.85,48.77Z"/><path class="a" d="M94.78,48.69a8,8,0,0,1,0-5.28A6.32,6.32,0,0,1,96,41.29a5.54,5.54,0,0,1,2-1.41,6.37,6.37,0,0,1,2.57-.51,6.18,6.18,0,0,1,3.29.88,5.88,5.88,0,0,1,2.21,2.4,7.8,7.8,0,0,1,0,6.8,5.88,5.88,0,0,1-2.21,2.4,6.56,6.56,0,0,1-5.86.37,5.54,5.54,0,0,1-2-1.41A6.32,6.32,0,0,1,94.78,48.69Zm.71-2.64A6.62,6.62,0,0,0,96.11,49a4.77,4.77,0,0,0,1.79,2,4.89,4.89,0,0,0,2.7.75,5,5,0,0,0,2.69-.74,4.82,4.82,0,0,0,1.8-2,7.16,7.16,0,0,0,0-5.83,4.8,4.8,0,0,0-1.8-2,5,5,0,0,0-2.69-.73A4.71,4.71,0,0,0,96.89,42,6,6,0,0,0,95.49,46.05Z"/><path class="a" d="M109.6,52.5V39.58h1.65l4.39,10.76L120,39.58h1.65V52.5h-1.11V41L115.85,52.5h-.42L110.71,41V52.5Z"/><path class="a" d="M124.89,52.5V39.58h1.65l4.4,10.76,4.38-10.76H137V52.5h-1.11V41L131.14,52.5h-.42L126,41V52.5Z"/><path class="a" d="M140.19,52.5V39.58h8.19v1h-7.09v4.79h7v1h-7V51.5h7.09v1Z"/><path class="a" d="M151.11,52.5V39.58h4.82a4,4,0,0,1,2.82,1,3.59,3.59,0,0,1,1.12,2.76,3.82,3.82,0,0,1-.5,2,3.26,3.26,0,0,1-1.3,1.28,4.06,4.06,0,0,1-1.79.46L160,52.5h-1.34l-3.62-5.35h-2.85V52.5Zm1.1-6.35h3.63a2.81,2.81,0,0,0,2.07-.78,2.69,2.69,0,0,0,.79-2,2.65,2.65,0,0,0-.79-2,2.81,2.81,0,0,0-2.07-.77h-3.63Z"/><path class="a" d="M162.64,48.77a7.19,7.19,0,0,1-.51-2.72,7.11,7.11,0,0,1,.51-2.71A6.2,6.2,0,0,1,164,41.21a6.28,6.28,0,0,1,2.08-1.35,6.63,6.63,0,0,1,2.56-.49,5.74,5.74,0,0,1,4.71,2.28l-.94.6a4.51,4.51,0,0,0-1.62-1.37,4.69,4.69,0,0,0-2.15-.51,5.51,5.51,0,0,0-2.11.41,5.13,5.13,0,0,0-2.86,3,6.49,6.49,0,0,0-.41,2.31A6.09,6.09,0,0,0,164,49,5.29,5.29,0,0,0,166,51a5.37,5.37,0,0,0,2.72.72,4.7,4.7,0,0,0,2.15-.52,4.42,4.42,0,0,0,1.62-1.37l1,.59a5.89,5.89,0,0,1-4.73,2.3,6.82,6.82,0,0,1-2.56-.49A6.31,6.31,0,0,1,164,50.89,6.15,6.15,0,0,1,162.64,48.77Z"/><path class="a" d="M175.6,52.5V39.58h8.19v1h-7.08v4.79h6.95v1h-6.95V51.5h7.08v1Z"/></svg>