<?xml version="1.0" encoding="UTF-8" standalone="no"?>
<!-- Created with Keyshape -->
<svg xmlns="http://www.w3.org/2000/svg" width="233" height="233" viewBox="0 0 233 233">
    <defs>
        <clipPath id="clip-path">
            <ellipse id="Ellipse_2" data-name="Ellipse 2" fill="#fff" rx="106.5" ry="106.5" transform="translate(-4,622) translate(106.5,106.5)"/>
        </clipPath>
    </defs>
    <style>
@keyframes Tracé_25_t { 0% { transform: translate(-82.368587px,710.633087px); } 53.3333% { transform: translate(-82.368587px,710.633087px); animation-timing-function: cubic-bezier(0.42,0,1,1); } 63.3333% { transform: translate(-77.283px,702.438974px); animation-timing-function: cubic-bezier(0,0,0.58,1); } 73.3333% { transform: translate(-82.368584px,710.633112px); } 100% { transform: translate(-82.368584px,710.633112px); } }
    </style>
    <g id="Groupe_2" data-name="Groupe 2" transform="translate(14,-612)">
        <ellipse id="Ellipse_1" data-name="Ellipse 1" fill="#fff" rx="116.5" ry="116.5" transform="translate(-14,612) translate(116.5,116.5)"/>
        <g id="Tracé_26" data-name="Tracé 26" fill="none" transform="translate(-4,622)">
            <path d="M106.5,0C149.575,0,188.409,25.9479,204.893,65.7442C221.377,105.541,212.266,151.348,181.807,181.807C151.348,212.266,105.541,221.377,65.7442,204.893C25.9479,188.409,0,149.575,0,106.5C0,92.5142,2.7547,78.6654,8.10683,65.7442C13.459,52.823,21.3037,41.0826,31.1931,31.1931C41.0826,21.3037,52.823,13.459,65.7442,8.10683C78.6654,2.7547,92.5142,0,106.5,0Z" stroke="none"/>
            <path d="M106.5,3C99.4757,3,92.4567,3.70747,85.638,5.1028C78.9941,6.46233,72.4589,8.49097,66.2141,11.1323C60.0819,13.726,54.1672,16.9364,48.6343,20.6744C43.1531,24.3774,37.9988,28.6301,33.3144,33.3144C28.6301,37.9988,24.3774,43.1531,20.6744,48.6343C16.9364,54.1672,13.726,60.0819,11.1323,66.2141C8.49097,72.4589,6.46233,78.9941,5.1028,85.638C3.70747,92.4567,3,99.4757,3,106.5C3,113.524,3.70747,120.543,5.1028,127.362C6.46233,134.006,8.49097,140.541,11.1323,146.786C13.726,152.918,16.9364,158.833,20.6744,164.366C24.3774,169.847,28.6301,175.001,33.3144,179.686C37.9988,184.37,43.1531,188.623,48.6343,192.326C54.1672,196.064,60.0819,199.274,66.2141,201.868C72.4589,204.509,78.9941,206.538,85.638,207.897C92.4567,209.293,99.4757,210,106.5,210C113.524,210,120.543,209.293,127.362,207.897C134.006,206.538,140.541,204.509,146.786,201.868C152.918,199.274,158.833,196.064,164.366,192.326C169.847,188.623,175.001,184.37,179.686,179.686C184.37,175.001,188.623,169.847,192.326,164.366C196.064,158.833,199.274,152.918,201.868,146.786C204.509,140.541,206.538,134.006,207.897,127.362C209.293,120.543,210,113.524,210,106.5C210,99.4757,209.293,92.4567,207.897,85.638C206.538,78.9941,204.509,72.4589,201.868,66.2141C199.274,60.0819,196.064,54.1672,192.326,48.6343C188.623,43.1531,184.37,37.9988,179.686,33.3144C175.001,28.6301,169.847,24.3774,164.366,20.6744C158.833,16.9364,152.918,13.726,146.786,11.1323C140.541,8.49097,134.006,6.46233,127.362,5.1028C120.543,3.70747,113.524,3,106.5,3M106.5,0C165.318,0,213,47.6817,213,106.5C213,165.318,165.318,213,106.5,213C47.6817,213,0,165.318,0,106.5C0,47.6817,47.6817,0,106.5,0Z" stroke="none" fill="#101d47"/>
        </g>
        <g id="Groupe_de_masques_1" data-name="Groupe de masques 1" clip-path="url(#clip-path)">
            <path id="Tracé_25" data-name="Tracé 25" d="M188.32,57.977C187.655,57.4223,186.892,56.997,186.071,56.723C185.25,56.4491,184.384,56.3315,183.52,56.3761C182.655,56.4208,181.806,56.627,181.018,56.984C180.229,57.3411,179.514,57.8427,178.91,58.463L165.471,71.9L165.349,70.217C165.312,69.8499,165.244,69.4867,165.145,69.1313C165.046,68.7759,164.916,68.4297,164.758,68.0965C164.6,67.7634,164.413,67.4445,164.2,67.1434C163.986,66.8423,163.748,66.5601,163.486,66.3C163.281,66.0995,163.066,65.9106,162.84,65.734C162.615,65.5574,162.38,65.3936,162.136,65.2431C161.892,65.0927,161.64,64.9559,161.381,64.8334C161.122,64.711,160.857,64.603,160.586,64.51C160.146,64.3451,159.69,64.2282,159.225,64.1614C158.761,64.0946,158.29,64.0783,157.822,64.1127C157.353,64.1472,156.89,64.2321,156.44,64.3662C155.99,64.5002,155.556,64.6826,155.145,64.91C154.77,65.1264,154.419,65.3828,154.1,65.6747C153.78,65.9666,153.493,66.2923,153.243,66.6461C152.993,66.9999,152.783,67.3797,152.615,67.7788C152.447,68.178,152.323,68.5941,152.245,69.02L149.634,82.92C149.498,83.6635,149.404,84.4143,149.354,85.1685C149.304,85.9228,149.297,86.6793,149.333,87.4344C149.369,88.1894,149.449,88.9418,149.571,89.6877C149.694,90.4337,149.859,91.172,150.066,91.899C150.064,91.9068,150.062,91.9145,150.059,91.9219C150.056,91.9294,150.053,91.9366,150.049,91.9435C150.045,91.9505,150.04,91.9571,150.035,91.9634C150.03,91.9696,150.025,91.9755,150.019,91.981L146.254,95.746L145.842,95.334C145.697,95.1889,145.525,95.0738,145.335,94.9953C145.145,94.9168,144.942,94.8764,144.737,94.8764C144.532,94.8764,144.329,94.9168,144.139,94.9953C143.949,95.0738,143.777,95.1889,143.632,95.334L127.49,112.194C126.88,112.804,123.839,115.858,124.449,116.469L143.639,135.659C144.249,136.269,148.279,134.204,148.889,133.594L165.038,116.73C165.183,116.585,165.298,116.413,165.377,116.223C165.456,116.033,165.496,115.83,165.496,115.625C165.496,115.42,165.456,115.217,165.377,115.027C165.298,114.837,165.183,114.665,165.038,114.52L164.626,114.108L170.012,108.722C170.194,108.546,170.389,108.386,170.597,108.243C170.805,108.099,171.024,107.973,171.253,107.866C171.482,107.759,171.719,107.67,171.962,107.602C172.205,107.533,172.453,107.485,172.704,107.457C173.591,107.349,174.468,107.167,175.326,106.915C176.183,106.662,177.019,106.339,177.823,105.949C178.627,105.559,179.398,105.103,180.127,104.586C180.856,104.068,181.542,103.492,182.176,102.862L186.746,98.297C187.343,97.736,187.821,97.0597,188.15,96.309C188.478,95.5583,188.651,94.7487,188.659,93.9292C188.666,93.1098,188.507,92.2973,188.191,91.541C187.875,90.7848,187.41,90.1003,186.822,89.529L186.762,89.469C186.456,89.163,186.043,89.054,186.326,88.12C186.363,87.9766,186.394,87.8318,186.419,87.6858C186.444,87.5398,186.463,87.3929,186.475,87.2453C186.488,87.0978,186.495,86.9498,186.495,86.8017C186.495,86.6536,186.489,86.5056,186.477,86.358C186.448,85.9851,186.386,85.6155,186.292,85.2537C186.197,84.8919,186.07,84.5392,185.913,84.2C185.755,83.8608,185.568,83.5363,185.353,83.2305C185.137,82.9246,184.895,82.6387,184.629,82.376L184.562,82.309C184.404,82.151,184.24,82.0027,184.071,81.864C183.984,81.7947,183.907,81.7149,183.84,81.6263C183.773,81.5378,183.717,81.4412,183.675,81.3389C183.632,81.2366,183.602,81.1293,183.585,81.0195C183.569,80.9097,183.567,80.7984,183.578,80.688C183.62,80.2831,183.622,79.8751,183.584,79.4698C183.546,79.0645,183.467,78.664,183.35,78.2742C183.233,77.8844,183.077,77.5071,182.886,77.1479C182.694,76.7888,182.467,76.4495,182.209,76.135C182.172,76.0892,182.134,76.0438,182.096,75.9989C182.057,75.9541,182.018,75.9097,181.979,75.8658C181.939,75.822,181.899,75.7787,181.859,75.7358C181.818,75.693,181.777,75.6507,181.735,75.609C181.598,75.4717,181.456,75.342,181.31,75.22L188.656,67.873C189.312,67.2158,189.827,66.4308,190.167,65.5667C190.507,64.7025,190.667,63.7777,190.635,62.8494C190.603,61.9212,190.381,61.0094,189.982,60.1706C189.583,59.3318,189.017,58.5838,188.317,57.973ZM186.69,65.9L175.33,77.266C175.673,76.978,176.072,76.7645,176.501,76.6391C176.931,76.5138,177.382,76.4793,177.826,76.5379C178.27,76.5965,178.697,76.7469,179.079,76.9795C179.462,77.2121,179.792,77.5219,180.048,77.889C180.302,78.1789,180.5,78.5128,180.634,78.8742C180.767,79.2356,180.833,79.6184,180.829,80.0037C180.825,80.3889,180.75,80.7701,180.608,81.1284C180.466,81.4867,180.26,81.816,180,82.1L178.143,83.959C178.457,83.6893,178.821,83.4839,179.214,83.3542C179.608,83.2246,180.023,83.1733,180.436,83.2033C180.849,83.2332,181.252,83.3439,181.622,83.5289C181.992,83.7139,182.323,83.9698,182.595,84.282L182.663,84.35C182.963,84.6132,183.208,84.9326,183.385,85.2901C183.563,85.6476,183.668,86.0363,183.696,86.4343C183.724,86.8323,183.673,87.2319,183.548,87.6106C183.422,87.9892,183.223,88.3396,182.963,88.642L181.026,90.579C182.134,89.479,183.512,90.161,184.794,91.443L184.854,91.503C185.182,91.8163,185.442,92.1941,185.617,92.6127C185.792,93.0312,185.879,93.4814,185.872,93.9351C185.865,94.3888,185.764,94.8361,185.576,95.2489C185.387,95.6617,185.116,96.0312,184.778,96.334L180.209,100.899C179.682,101.421,179.112,101.898,178.506,102.326C177.9,102.754,177.26,103.132,176.592,103.454C175.924,103.777,175.23,104.044,174.518,104.252C173.807,104.461,173.079,104.61,172.342,104.699C171.94,104.747,171.543,104.827,171.154,104.94C170.766,105.052,170.387,105.197,170.022,105.371C169.657,105.546,169.307,105.75,168.975,105.982C168.643,106.214,168.331,106.473,168.042,106.756L163.348,111.45L148.918,97.02L151.991,93.947C152.171,93.7701,152.327,93.5701,152.455,93.3522C152.583,93.1344,152.682,92.9006,152.748,92.6569C152.815,92.4132,152.849,92.1618,152.849,91.9092C152.85,91.6566,152.817,91.405,152.752,91.161C152.573,90.5356,152.43,89.9005,152.324,89.2587C152.218,88.6169,152.149,87.9696,152.117,87.3199C152.085,86.6702,152.09,86.0191,152.133,85.3701C152.176,84.721,152.256,84.0749,152.373,83.435L154.985,69.535C155.085,69.0411,155.294,68.576,155.598,68.1741C155.902,67.7722,156.292,67.4438,156.74,67.2133C157.188,66.9828,157.682,66.8561,158.185,66.8425C158.689,66.829,159.189,66.9289,159.649,67.135C160.029,67.2416,160.392,67.4032,160.726,67.6147C161.06,67.8261,161.361,68.0852,161.62,68.3836C161.878,68.6821,162.092,69.0168,162.254,69.377C162.417,69.7373,162.525,70.1193,162.577,70.511L163.125,78.184L181.044,60.265C181.784,59.4813,182.809,59.0301,183.886,59.0139C184.964,58.9978,186.002,59.4182,186.764,60.1794C187.527,60.9406,187.95,61.9779,187.936,63.0554C187.922,64.1329,187.472,65.1589,186.69,65.9Z" fill="#101d47" transform="translate(-82.3686,710.633)" style="animation: 3s linear infinite both Tracé_25_t;"/>
        </g>
        <g id="logo" transform="translate(29.368,686.277)">
            <path id="Tracé_1" data-name="Tracé 1" d="M860.753,123.91L857.918,123.91L857.918,132.77L856.307,132.77L856.307,123.91L853.464,123.91L853.464,122.46L860.713,122.46Z" fill="#101d47" transform="translate(-788,-113.013)"/>
            <path id="Tracé_2" data-name="Tracé 2" d="M941.465,132.343C941.315,132.277,941.168,132.204,941.024,132.124C940.881,132.044,940.742,131.957,940.607,131.864C940.472,131.771,940.341,131.671,940.215,131.566C940.09,131.46,939.969,131.349,939.854,131.232C939.736,131.118,939.623,130.998,939.517,130.873C939.411,130.748,939.311,130.617,939.217,130.482C939.124,130.347,939.038,130.207,938.958,130.063C938.879,129.92,938.807,129.772,938.742,129.621C938.676,129.463,938.618,129.302,938.568,129.138C938.517,128.975,938.476,128.809,938.442,128.641C938.408,128.473,938.383,128.304,938.367,128.133C938.35,127.963,938.342,127.792,938.342,127.621C938.342,127.449,938.35,127.277,938.367,127.105C938.383,126.934,938.409,126.763,938.442,126.594C938.476,126.425,938.518,126.258,938.568,126.093C938.618,125.928,938.676,125.766,938.742,125.607C938.81,125.458,938.885,125.312,938.966,125.17C939.047,125.027,939.134,124.889,939.227,124.754C939.32,124.619,939.419,124.489,939.524,124.363C939.629,124.237,939.739,124.116,939.855,124C940.092,123.759,940.353,123.542,940.633,123.352C940.913,123.162,941.211,123,941.522,122.868C941.834,122.737,942.158,122.636,942.489,122.568C942.82,122.5,943.158,122.464,943.496,122.462C944.17,122.458,944.838,122.588,945.461,122.844C946.084,123.101,946.65,123.478,947.126,123.954C947.603,124.431,947.98,124.997,948.236,125.62C948.492,126.243,948.622,126.911,948.618,127.585C948.618,127.921,948.584,128.257,948.519,128.586C948.453,128.916,948.355,129.239,948.227,129.549C948.099,129.86,947.94,130.158,947.754,130.437C947.568,130.717,947.355,130.978,947.118,131.217C947.002,131.332,946.88,131.443,946.754,131.547C946.628,131.652,946.497,131.751,946.362,131.844C946.227,131.937,946.088,132.024,945.945,132.105C945.803,132.186,945.656,132.26,945.507,132.328C945.348,132.394,945.186,132.452,945.021,132.502C944.856,132.552,944.689,132.594,944.52,132.628C944.351,132.661,944.18,132.687,944.009,132.703C943.837,132.72,943.665,132.728,943.493,132.728C943.322,132.729,943.151,132.722,942.981,132.707C942.811,132.691,942.641,132.667,942.474,132.634C942.306,132.602,942.14,132.561,941.976,132.512C941.812,132.463,941.651,132.406,941.493,132.341M940.993,125.092C939.814,126.286,939.642,128.146,940.581,129.536C941.521,130.926,943.31,131.46,944.858,130.812C946.405,130.164,947.28,128.514,946.948,126.869C946.617,125.225,945.171,124.043,943.493,124.045C943.261,124.045,943.03,124.069,942.802,124.114C942.575,124.16,942.352,124.229,942.138,124.318C941.924,124.408,941.72,124.518,941.527,124.648C941.335,124.778,941.156,124.927,940.993,125.092" fill="#101d47" transform="translate(-866.328,-113.013)"/>
            <path id="Tracé_3" data-name="Tracé 3" d="M345.633,1.216L345.633,17.832L329.275,0L329.275,6.443C330.134,7.59485,330.802,8.87712,331.255,10.2409C331.707,11.6046,331.938,13.0321,331.938,14.469C331.938,15.9059,331.707,17.3334,331.255,18.6971C330.802,20.0609,330.134,21.3431,329.275,22.495L329.275,27.706L333.431,27.706L333.431,12.122L350.047,30.172L350.047,1.216Z" fill="#101d47" transform="translate(-304.252,0)"/>
            <path id="Tracé_4" data-name="Tracé 4" d="M633.806,38.879L633.806,42.665L617.939,42.665L617.939,16.182L633.806,16.182L633.806,19.951L622.119,19.951L622.119,26.966L631.728,26.966L631.728,30.752L622,30.752L622,38.887Z" fill="#101d47" transform="translate(-570.645,-14.933)"/>
            <path id="Tracé_5" data-name="Tracé 5" d="M13.039,15.337C7.65475,15.2785,2.76599,18.4708,0.654359,23.4241C-1.45728,28.3773,-0.375487,34.115,3.39484,37.9592C7.16518,41.8035,12.8807,42.9964,17.874,40.9813C22.8673,38.9662,26.154,34.1404,26.2,28.756L26.2,28.656C26.2092,26.9176,25.8762,25.1944,25.22,23.5846C24.5638,21.9748,23.5973,20.5099,22.3754,19.2733C21.1535,18.0368,19.7002,17.0528,18.0983,16.3774C16.4965,15.702,14.7774,15.3485,13.039,15.337M13.039,37.672C9.38785,37.6655,6.09995,35.4607,4.70795,32.0853C3.31594,28.7099,4.09384,24.8284,6.67902,22.2501C9.26421,19.6717,13.1478,18.9042,16.5195,20.3051C19.8912,21.7061,22.0872,24.9998,22.084,28.651C22.083,29.8374,21.8481,31.0119,21.3929,32.1075C20.9377,33.2031,20.271,34.1982,19.431,35.036C18.591,35.8737,17.5941,36.5378,16.4973,36.9901C15.4005,37.4424,14.2254,37.6741,13.039,37.672Z" fill="#101d47" transform="translate(0,-14.153)"/>
            <path id="Tracé_5-2" data-name="Tracé 5" d="M13.039,15.337C7.65475,15.2785,2.76599,18.4708,0.654359,23.4241C-1.45728,28.3773,-0.375487,34.115,3.39484,37.9592C7.16518,41.8035,12.8807,42.9964,17.874,40.9813C22.8673,38.9662,26.154,34.1404,26.2,28.756L26.2,28.656C26.2092,26.9176,25.8762,25.1944,25.22,23.5846C24.5638,21.9748,23.5973,20.5099,22.3754,19.2733C21.1535,18.0368,19.7002,17.0528,18.0983,16.3774C16.4965,15.702,14.7774,15.3485,13.039,15.337M13.039,37.672C9.38785,37.6655,6.09995,35.4607,4.70795,32.0853C3.31594,28.7099,4.09384,24.8284,6.67902,22.2501C9.26421,19.6717,13.1478,18.9042,16.5195,20.3051C19.8912,21.7061,22.0872,24.9998,22.084,28.651C22.083,29.8374,21.8481,31.0119,21.3929,32.1075C20.9377,33.2031,20.271,34.1982,19.431,35.036C18.591,35.8737,17.5941,36.5378,16.4973,36.9901C15.4005,37.4424,14.2254,37.6741,13.039,37.672Z" fill="#101d47" transform="translate(84.3688,-14.153)"/>
            <path id="Tracé_6" data-name="Tracé 6" d="M1441.52,1.232L1441.52,17.84L1425.15,0L1425.15,6.443C1426.02,7.59325,1426.69,8.87501,1427.14,10.239C1427.6,11.6029,1427.83,13.0313,1427.83,14.469C1427.83,15.9067,1427.6,17.3351,1427.14,18.699C1426.69,20.063,1426.02,21.3448,1425.15,22.495L1425.15,27.682L1429.32,27.682L1429.32,12.138L1445.91,30.18L1445.91,1.232Z" fill="#101d47" transform="translate(-1315.59,0)"/>
            <path id="Tracé_7" data-name="Tracé 7" d="M1729.79,39.088L1729.79,42.874L1713.92,42.874L1713.92,16.391L1729.79,16.391L1729.79,20.16L1718.1,20.16L1718.1,27.207L1727.72,27.207L1727.72,30.984L1717.98,30.984L1717.98,39.1Z" fill="#101d47" transform="translate(-1582.08,-15.126)"/>
        </g>
        <rect id="Rectangle_1" data-name="Rectangle 1" width="162" height="35" fill="#101d47" transform="translate(24,724)"/>
        <path id="on_demand" fill="#fff" d="M8.48,0.24C12.8,0.24,15.94,-3.02,15.94,-7L15.94,-7.04C15.94,-11.02,12.84,-14.24,8.52,-14.24C4.2,-14.24,1.06,-10.98,1.06,-7L1.06,-6.96C1.06,-2.98,4.16,0.24,8.48,0.24ZM8.52,-2.6C6.04,-2.6,4.28,-4.6,4.28,-7L4.28,-7.04C4.28,-9.44,6,-11.4,8.48,-11.4C10.96,-11.4,12.72,-9.4,12.72,-7L12.72,-6.96C12.72,-4.56,11,-2.6,8.52,-2.6ZM18.68,0L21.72,0L21.72,-8.9L28.5,0L31.12,0L31.12,-14L28.08,-14L28.08,-5.38L21.52,-14L18.68,-14ZM40.4769,0L45.9369,0C50.3369,0,53.3769,-3.06,53.3769,-7L53.3769,-7.04C53.3769,-10.98,50.3369,-14,45.9369,-14L40.4769,-14ZM43.5569,-2.78L43.5569,-11.22L45.9369,-11.22C48.4569,-11.22,50.1569,-9.48,50.1569,-7L50.1569,-6.96C50.1569,-4.48,48.4569,-2.78,45.9369,-2.78ZM56.1175,0L66.7775,0L66.7775,-2.74L59.1775,-2.74L59.1775,-5.68L65.7775,-5.68L65.7775,-8.42L59.1775,-8.42L59.1775,-11.26L66.6775,-11.26L66.6775,-14L56.1175,-14ZM69.5238,0L72.5437,0L72.5437,-9.08L76.4437,-3.16L76.5238,-3.16L80.4638,-9.14L80.4638,0L83.5238,0L83.5238,-14L80.2038,-14L76.5238,-8.08L72.8438,-14L69.5238,-14ZM85.6831,0L88.8231,0L90.1031,-3.14L96.0231,-3.14L97.3031,0L100.523,0L94.5231,-14.1L91.6831,-14.1ZM91.2031,-5.86L93.0631,-10.4L94.9231,-5.86ZM102.68,0L105.72,0L105.72,-8.9L112.5,0L115.12,0L115.12,-14L112.08,-14L112.08,-5.38L105.52,-14L102.68,-14ZM118.477,0L123.937,0C128.337,0,131.377,-3.06,131.377,-7L131.377,-7.04C131.377,-10.98,128.337,-14,123.937,-14L118.477,-14ZM121.557,-2.78L121.557,-11.22L123.937,-11.22C126.457,-11.22,128.157,-9.48,128.157,-7L128.157,-6.96C128.157,-4.48,126.457,-2.78,123.937,-2.78Z" transform="translate(40,749)"/>
    </g>
</svg>
