<svg viewBox="0 0 183.87 52.74" xmlns="http://www.w3.org/2000/svg"><path d="m90.8 13.53h-3.52v11h-2v-11h-3.53v-1.8h9z" fill="#353234"/><path d="m93.76 24a6.45 6.45 0 0 1 -2-1.38 6.13 6.13 0 0 1 -1.38-2 6.39 6.39 0 0 1 -.5-2.48 6.49 6.49 0 0 1 .5-2.5 6.88 6.88 0 0 1 1.38-2 6.4 6.4 0 0 1 4.52-1.91 6.49 6.49 0 0 1 2.5.5 6.46 6.46 0 0 1 3.36 3.36 6.49 6.49 0 0 1 .5 2.5 6.41 6.41 0 0 1 -1.86 4.51 6.88 6.88 0 0 1 -2 1.38 6.49 6.49 0 0 1 -2.5.5 6.39 6.39 0 0 1 -2.48-.48m-.62-9a4.37 4.37 0 1 0 3.1-1.3 4.36 4.36 0 0 0 -3.1 1.3" fill="#353234"/><path d="m51.85 1.51v20.63l-20.31-22.14v8a16.67 16.67 0 0 1 0 19.93v6.47h5.16v-19.35l20.63 22.41v-35.95z" fill="#1870ad"/><path d="m78.89 29.73v4.7h-19.7v-32.88h19.7v4.68h-14.51v8.71h11.93v4.7h-12.08v10.1z" fill="#1870ad"/><path d="m16.66 1.47a16.52 16.52 0 1 0 16.34 16.66v-.13a16.45 16.45 0 0 0 -16.34-16.53m0 27.73a11.21 11.21 0 1 1 11.23-11.2 11.21 11.21 0 0 1 -11.23 11.2z" fill="#1870ad"/><path d="m156.83 1.53v20.62l-20.32-22.15v8a16.61 16.61 0 0 1 0 19.93v6.44h5.17v-19.3l20.6 22.4v-35.94z" fill="#1870ad"/><path d="m183.87 29.75v4.7h-19.7v-32.88h19.7v4.68h-14.51v8.75h11.94v4.69h-12.09v10.07z" fill="#1870ad"/><path d="m121.64 1.49a16.52 16.52 0 1 0 16.36 16.66v-.15a16.44 16.44 0 0 0 -16.35-16.51m0 27.72a11.21 11.21 0 1 1 11.21-11.21 11.21 11.21 0 0 1 -11.22 11.21" fill="#1870ad"/><g fill="#353234"><path d="m.52 52.5v-12.92h4.82a4 4 0 0 1 2.82 1 3.58 3.58 0 0 1 1.11 2.76 3.82 3.82 0 0 1 -.49 2 3.33 3.33 0 0 1 -1.3 1.28 4.06 4.06 0 0 1 -1.79.46l3.73 5.42h-1.33l-3.62-5.35h-2.85v5.35zm1.1-6.35h3.62a2.84 2.84 0 0 0 2.08-.78 2.69 2.69 0 0 0 .79-2 2.65 2.65 0 0 0 -.79-2 2.83 2.83 0 0 0 -2.08-.77h-3.62z"/><path d="m12 52.5v-12.92h8.19v1h-7.07v4.79h7v1h-7v5.13h7.09v1z"/><path d="m22 40.59v-1h9.58v1h-4.24v11.91h-1.11v-11.91z"/><path d="m32.55 52.5 5.28-12.92h1.37l5.29 12.92h-1.28l-1.27-3.18h-6.84l-1.28 3.18zm2.92-4.18h6.1l-3-7.56z"/><path d="m46.39 52.5v-12.92h1.11v12.92z"/><path d="m50.43 52.5v-12.92h1.11v11.92h6.28v1z"/><path d="m65.09 52.5v-12.92h8.19v1h-7.09v4.79h7v1h-7v5.13h7.09v1z"/><path d="m75 48.28v-.9h4.65v.9z"/><path d="m81.85 48.77a7 7 0 0 1 -.52-2.72 6.92 6.92 0 0 1 .52-2.71 6.2 6.2 0 0 1 1.39-2.13 6.28 6.28 0 0 1 2.08-1.35 6.63 6.63 0 0 1 2.56-.49 5.74 5.74 0 0 1 4.71 2.28l-.94.6a4.51 4.51 0 0 0 -1.65-1.37 4.69 4.69 0 0 0 -2.15-.51 5.47 5.47 0 0 0 -2.11.41 5.13 5.13 0 0 0 -2.86 3 6.49 6.49 0 0 0 -.41 2.31 6.09 6.09 0 0 0 .74 2.91 5.21 5.21 0 0 0 4.67 2.75 4.7 4.7 0 0 0 2.12-.53 4.42 4.42 0 0 0 1.62-1.37l1 .59a5.89 5.89 0 0 1 -4.73 2.3 6.82 6.82 0 0 1 -2.56-.49 6.31 6.31 0 0 1 -2.08-1.36 6.15 6.15 0 0 1 -1.4-2.12z"/><path d="m94.78 48.69a8 8 0 0 1 0-5.28 6.32 6.32 0 0 1 1.22-2.12 5.54 5.54 0 0 1 2-1.41 6.37 6.37 0 0 1 2.57-.51 6.18 6.18 0 0 1 3.29.88 5.88 5.88 0 0 1 2.21 2.4 7.8 7.8 0 0 1 0 6.8 5.88 5.88 0 0 1 -2.21 2.4 6.56 6.56 0 0 1 -5.86.37 5.54 5.54 0 0 1 -2-1.41 6.32 6.32 0 0 1 -1.22-2.12zm.71-2.64a6.62 6.62 0 0 0 .62 2.95 4.77 4.77 0 0 0 1.79 2 4.89 4.89 0 0 0 2.7.75 5 5 0 0 0 2.69-.74 4.82 4.82 0 0 0 1.8-2 7.16 7.16 0 0 0 0-5.83 4.8 4.8 0 0 0 -1.8-2 5 5 0 0 0 -2.69-.73 4.71 4.71 0 0 0 -3.71 1.55 6 6 0 0 0 -1.4 4.05z"/><path d="m109.6 52.5v-12.92h1.65l4.39 10.76 4.36-10.76h1.65v12.92h-1.11v-11.5l-4.69 11.5h-.42l-4.72-11.5v11.5z"/><path d="m124.89 52.5v-12.92h1.65l4.4 10.76 4.38-10.76h1.68v12.92h-1.11v-11.5l-4.75 11.5h-.42l-4.72-11.5v11.5z"/><path d="m140.19 52.5v-12.92h8.19v1h-7.09v4.79h7v1h-7v5.13h7.09v1z"/><path d="m151.11 52.5v-12.92h4.82a4 4 0 0 1 2.82 1 3.59 3.59 0 0 1 1.12 2.76 3.82 3.82 0 0 1 -.5 2 3.26 3.26 0 0 1 -1.3 1.28 4.06 4.06 0 0 1 -1.79.46l3.72 5.42h-1.34l-3.62-5.35h-2.85v5.35zm1.1-6.35h3.63a2.81 2.81 0 0 0 2.07-.78 2.69 2.69 0 0 0 .79-2 2.65 2.65 0 0 0 -.79-2 2.81 2.81 0 0 0 -2.07-.77h-3.63z"/><path d="m162.64 48.77a7.19 7.19 0 0 1 -.51-2.72 7.11 7.11 0 0 1 .51-2.71 6.2 6.2 0 0 1 1.36-2.13 6.28 6.28 0 0 1 2.08-1.35 6.63 6.63 0 0 1 2.56-.49 5.74 5.74 0 0 1 4.71 2.28l-.94.6a4.51 4.51 0 0 0 -1.62-1.37 4.69 4.69 0 0 0 -2.15-.51 5.51 5.51 0 0 0 -2.11.41 5.13 5.13 0 0 0 -2.86 3 6.49 6.49 0 0 0 -.41 2.31 6.09 6.09 0 0 0 .74 2.91 5.29 5.29 0 0 0 2 2 5.37 5.37 0 0 0 2.72.72 4.7 4.7 0 0 0 2.15-.52 4.42 4.42 0 0 0 1.62-1.37l1 .59a5.89 5.89 0 0 1 -4.73 2.3 6.82 6.82 0 0 1 -2.56-.49 6.31 6.31 0 0 1 -2.2-1.34 6.15 6.15 0 0 1 -1.36-2.12z"/><path d="m175.6 52.5v-12.92h8.19v1h-7.08v4.79h6.95v1h-6.95v5.13h7.08v1z"/></g></svg>