<?xml version="1.0" encoding="utf-8"?>
<!-- Generator: Adobe Illustrator 24.0.2, SVG Export Plug-In . SVG Version: 6.00 Build 0)  -->
<svg version="1.1" id="Calque_1" xmlns="http://www.w3.org/2000/svg" xmlns:xlink="http://www.w3.org/1999/xlink" x="0px" y="0px"
	 viewBox="0 0 183.9 52.7" style="enable-background:new 0 0 183.9 52.7;" xml:space="preserve">
<style type="text/css">
	.st0{fill:#353234;}
	.st1{fill:#7C6859;}
</style>
<path class="st0" d="M90.8,13.5h-3.5v11h-2v-11h-3.5v-1.8h9L90.8,13.5z"/>
<path class="st0" d="M93.8,24c-0.7-0.3-1.4-0.8-2-1.4c-0.6-0.6-1.1-1.2-1.4-2c-0.3-0.8-0.5-1.6-0.5-2.5c0-0.9,0.2-1.7,0.5-2.5
	c0.3-0.7,0.8-1.4,1.4-2c1.2-1.2,2.8-1.9,4.5-1.9c0.9,0,1.7,0.2,2.5,0.5c1.5,0.7,2.7,1.9,3.4,3.4c0.3,0.8,0.5,1.6,0.5,2.5
	c0,1.7-0.7,3.3-1.9,4.5c-0.6,0.6-1.3,1-2,1.4c-0.8,0.3-1.6,0.5-2.5,0.5C95.4,24.5,94.6,24.3,93.8,24 M93.2,15
	c-1.7,1.7-1.7,4.5,0,6.2c1.7,1.7,4.5,1.7,6.2,0c1.7-1.7,1.7-4.5,0-6.2c-0.8-0.8-1.9-1.3-3.1-1.3C95.1,13.7,94,14.2,93.2,15"/>
<path class="st1" d="M51.8,1.5v20.6L31.5,0v8c4.4,5.9,4.4,14,0,19.9v6.5h5.2V15l20.6,22.4v-36L51.8,1.5z"/>
<path class="st1" d="M78.9,29.7v4.7H59.2V1.5h19.7v4.7H64.4v8.7h11.9v4.7H64.2v10.1L78.9,29.7z"/>
<path class="st1" d="M16.7,1.5C7.5,1.4,0.1,8.7,0,17.8s7.2,16.6,16.3,16.7S32.9,27.3,33,18.2c0,0,0,0,0,0V18
	C33,8.9,25.7,1.5,16.7,1.5 M16.7,29.2c-6.2,0-11.2-5-11.2-11.2s5-11.2,11.2-11.2c6.2,0,11.2,5,11.2,11.2
	C27.9,24.2,22.9,29.2,16.7,29.2C16.7,29.2,16.7,29.2,16.7,29.2z"/>
<path class="st1" d="M156.8,1.5v20.6L136.5,0v8c4.4,5.9,4.4,14,0,19.9v6.4h5.2V15.1l20.6,22.4V1.5L156.8,1.5z"/>
<path class="st1" d="M183.9,29.7v4.7h-19.7V1.6h19.7v4.7h-14.5V15h11.9v4.7h-12.1v10.1L183.9,29.7z"/>
<path class="st1" d="M121.6,1.5C112.5,1.4,105,8.7,105,17.8c-0.1,9.1,7.2,16.6,16.4,16.7c9.1,0.1,16.6-7.2,16.7-16.4c0,0,0,0,0,0V18
	C138,8.9,130.7,1.5,121.6,1.5 M121.7,29.2c-6.2,0-11.2-5-11.2-11.2s5-11.2,11.2-11.2c6.2,0,11.2,5,11.2,11.2v0
	C132.9,24.2,127.8,29.2,121.7,29.2C121.6,29.2,121.6,29.2,121.7,29.2"/>
<g>
	<path class="st0" d="M0.5,52.5V39.6h4.8c1,0,2,0.3,2.8,1c0.8,0.7,1.2,1.7,1.1,2.8c0,0.7-0.1,1.4-0.5,2c-0.3,0.5-0.8,1-1.3,1.3
		c-0.6,0.3-1.2,0.4-1.8,0.5l3.7,5.4H8.1l-3.6-5.3H1.6v5.3H0.5z M1.6,46.1h3.6c0.8,0,1.5-0.2,2.1-0.8c0.5-0.5,0.8-1.3,0.8-2
		c0-0.7-0.3-1.5-0.8-2c-0.6-0.5-1.3-0.8-2.1-0.8H1.6L1.6,46.1z"/>
	<path class="st0" d="M12,52.5V39.6h8.2v1h-7.1v4.8h7v1h-7v5.1h7.1v1L12,52.5z"/>
	<path class="st0" d="M22,40.6v-1h9.6v1h-4.2v11.9h-1.1V40.6H22z"/>
	<path class="st0" d="M32.5,52.5l5.3-12.9h1.4l5.3,12.9h-1.3l-1.3-3.2h-6.8l-1.3,3.2H32.5z M35.5,48.3h6.1l-3-7.6L35.5,48.3z"/>
	<path class="st0" d="M46.4,52.5V39.6h1.1v12.9H46.4z"/>
	<path class="st0" d="M50.4,52.5V39.6h1.1v11.9h6.3v1H50.4z"/>
	<path class="st0" d="M65.1,52.5V39.6h8.2v1h-7.1v4.8h7v1h-7v5.1h7.1v1L65.1,52.5z"/>
	<path class="st0" d="M75,48.3v-0.9h4.7v0.9H75z"/>
	<path class="st0" d="M81.8,48.8c-0.4-0.9-0.5-1.8-0.5-2.7c0-0.9,0.2-1.9,0.5-2.7c0.3-0.8,0.8-1.5,1.4-2.1c0.6-0.6,1.3-1,2.1-1.3
		c0.8-0.3,1.7-0.5,2.6-0.5c1.8,0,3.6,0.8,4.7,2.3l-0.9,0.6c-0.4-0.6-1-1.1-1.7-1.4c-0.7-0.3-1.4-0.5-2.2-0.5c-0.7,0-1.4,0.1-2.1,0.4
		c-1.3,0.6-2.4,1.6-2.9,3c-0.3,0.7-0.4,1.5-0.4,2.3c0,1,0.3,2,0.7,2.9c0.9,1.7,2.7,2.8,4.7,2.8c0.7,0,1.5-0.2,2.1-0.5
		c0.6-0.3,1.2-0.8,1.6-1.4l1,0.6c-1.1,1.5-2.9,2.3-4.7,2.3c-0.9,0-1.7-0.2-2.6-0.5c-0.8-0.3-1.5-0.8-2.1-1.4
		C82.6,50.3,82.2,49.6,81.8,48.8L81.8,48.8z"/>
	<path class="st0" d="M94.8,48.7c-0.6-1.7-0.6-3.6,0-5.3c0.3-0.8,0.7-1.5,1.2-2.1c0.6-0.6,1.2-1.1,2-1.4c0.8-0.3,1.7-0.5,2.6-0.5
		c1.2,0,2.3,0.3,3.3,0.9c0.9,0.6,1.7,1.4,2.2,2.4c1,2.1,1,4.7,0,6.8c-0.5,1-1.3,1.8-2.2,2.4c-1.8,1-4,1.2-5.9,0.4
		c-0.8-0.3-1.4-0.8-2-1.4C95.5,50.2,95,49.5,94.8,48.7z M95.5,46c0,1,0.2,2,0.6,3c0.4,0.8,1,1.5,1.8,2c0.8,0.5,1.7,0.8,2.7,0.8
		c0.9,0,1.9-0.2,2.7-0.7c0.8-0.5,1.4-1.2,1.8-2c0.8-1.9,0.8-4,0-5.8c-0.4-0.8-1-1.5-1.8-2c-0.8-0.5-1.7-0.7-2.7-0.7
		c-1.4-0.1-2.8,0.5-3.7,1.5C95.9,43.1,95.4,44.6,95.5,46z"/>
	<path class="st0" d="M109.6,52.5V39.6h1.7l4.4,10.8l4.4-10.8h1.7v12.9h-1.1V41l-4.7,11.5h-0.4L110.7,41v11.5H109.6z"/>
	<path class="st0" d="M124.9,52.5V39.6h1.7l4.4,10.8l4.4-10.8h1.7v12.9h-1.1V41l-4.8,11.5h-0.4L126,41v11.5H124.9z"/>
	<path class="st0" d="M140.2,52.5V39.6h8.2v1h-7.1v4.8h7v1h-7v5.1h7.1v1L140.2,52.5z"/>
	<path class="st0" d="M151.1,52.5V39.6h4.8c1,0,2,0.3,2.8,1c0.8,0.7,1.2,1.7,1.1,2.8c0,0.7-0.2,1.4-0.5,2c-0.3,0.5-0.8,1-1.3,1.3
		c-0.6,0.3-1.2,0.4-1.8,0.5l3.7,5.4h-1.3l-3.6-5.3h-2.9v5.3H151.1z M152.2,46.1h3.6c0.8,0,1.5-0.2,2.1-0.8c0.5-0.5,0.8-1.3,0.8-2
		c0-0.7-0.3-1.5-0.8-2c-0.6-0.5-1.3-0.8-2.1-0.8h-3.6V46.1z"/>
	<path class="st0" d="M162.6,48.8c-0.3-0.9-0.5-1.8-0.5-2.7c0-0.9,0.2-1.8,0.5-2.7c0.3-0.8,0.8-1.5,1.4-2.1c0.6-0.6,1.3-1,2.1-1.3
		c0.8-0.3,1.7-0.5,2.6-0.5c1.8,0,3.6,0.8,4.7,2.3l-0.9,0.6c-0.4-0.6-1-1-1.6-1.4c-0.7-0.3-1.4-0.5-2.1-0.5c-0.7,0-1.4,0.1-2.1,0.4
		c-1.3,0.6-2.4,1.6-2.9,3c-0.3,0.7-0.4,1.5-0.4,2.3c0,1,0.3,2,0.7,2.9c0.5,0.8,1.2,1.5,2,2c0.8,0.5,1.8,0.7,2.7,0.7
		c0.7,0,1.5-0.2,2.1-0.5c0.6-0.3,1.2-0.8,1.6-1.4l1,0.6c-1.1,1.5-2.9,2.3-4.7,2.3c-0.9,0-1.7-0.2-2.6-0.5c-0.8-0.3-1.6-0.7-2.2-1.3
		C163.4,50.3,162.9,49.6,162.6,48.8L162.6,48.8z"/>
	<path class="st0" d="M175.6,52.5V39.6h8.2v1h-7.1v4.8h6.9v1h-6.9v5.1h7.1v1L175.6,52.5z"/>
</g>
</svg>
